<?xml version="1.0" encoding="UTF-8"?>
<svg width="980px" height="400px" viewBox="0 0 980 400" version="1.1" xmlns="http://www.w3.org/2000/svg" xmlns:xlink="http://www.w3.org/1999/xlink">
    <!-- Generator: Sketch 52.2 (67145) - http://www.bohemiancoding.com/sketch -->
    <title>banner</title>
    <desc>Created with Sketch.</desc>
    <g id="Page-1" stroke="none" stroke-width="1" fill="none" fill-rule="evenodd">
        <g id="github-banner" transform="translate(-16.000000, -21.000000)">
            <path d="M506.299363,78.0414519 L382.5,149.517047 L382.5,292.468239 L506.299363,363.943834 L630.098726,292.468239 L630.098726,149.517047 L506.299363,78.0414519 Z" id="Polygon" stroke="#343334" stroke-width="7"></path>
            <g id="Group" transform="translate(437.000000, 161.000000)" fill="#343334" fill-rule="nonzero">
                <circle id="Oval" cx="8.5" cy="25.5" r="8.5"></circle>
                <circle id="Oval" cx="129.5" cy="25.5" r="8.5"></circle>
                <circle id="Oval" cx="68.5" cy="8.5" r="8.5"></circle>
                <path d="M9,42.836394 L9,101 C20.0376812,93.1869783 45.0449275,88.4991653 68.8449275,88.4991653 C93.5072464,88.4991653 117.47971,92.6661102 128,101 L128,42.836394 C128,41.1001669 125.930435,40.0584307 124.723188,41.2737896 L98.8536232,63.1502504 C97.8188406,64.0183639 96.4391304,63.6711185 95.7492754,62.6293823 L71.9492754,23.9115192 C71.0869565,22.6961603 69.3623188,22.6961603 68.5,23.9115192 L43.4927536,63.3238731 C42.8028986,64.3656093 41.4231884,64.5392321 40.5608696,63.8447412 L12.2768116,41.1001669 C10.8971014,40.0584307 9,41.1001669 9,42.836394 Z" id="Shape"></path>
                <path d="M126,107.657895 C122.212575,102.013158 100.520958,95 68.5,95 C36.3068862,95 14.7874251,102.013158 11,107.657895 C16.8532934,115.355263 40.4386228,121 68.5,121 C96.5613772,121 119.974551,115.355263 126,107.657895 Z" id="Shape"></path>
            </g>
        </g>
    </g>
</svg>